<svg version="1.1" xmlns="http://www.w3.org/2000/svg" viewBox="-2700.9533567086432 -1085.7 5966.653356708643 2730.1"><desc>Created with Snap</desc><defs></defs><g><rect x="-2700.9533567086432" y="-1085.7" width="5966.653356708643" height="2730.1" fill="#2ec4b6" style=""></rect><g transform="matrix(23.5339,0,0,23.5339,-2511.423,-896.1696)"><g><path d="M78.4,66.5c-5.5,4.8-9.9,15.2-9.9,15.2s-6.9-11.4-12.9-15.3c-9.5-6.1-13.6-6.2-13.6-6.2V65c0,0,7.8,1.2,11.7,4.6   c8.2,7.1,14.8,18.5,14.8,18.5S74.4,75,80.1,70.5C88.1,64.3,95,65,95,65v-4.8C95,60.1,85.1,60.7,78.4,66.5z" fill="#292929" style=""></path><path d="M42,80c-6.4-3.6-17.8-4.3-17.8-4.3s8.7-10.1,10.5-17C37.5,47.9,36.2,44,36.2,44l-4.6,1.6c0,0,1.3,7.7-0.6,12.4   c-4.1,9.9-13,19.8-13,19.8s14.6,1.3,20.7,5.1c8.6,5.4,10.2,12,10.2,12l4.6-1.6C53.5,93.4,49.7,84.4,42,80z" fill="#292929" style=""></path><path d="M35.3,36.8c11.3-0.9,14.6-3.4,14.6-3.4l-3-3.8c0,0-6.9,3.7-12.1,3.4c-10.9-0.6-23.3-5.6-23.3-5.6s3.5,14,1.8,20.9   C10.9,58.2,5,61.8,5,61.8l3,3.8c0,0,7.5-6.5,9.1-15.1c1.3-7.1-1.7-18-1.7-18S28,37.4,35.3,36.8z" fill="#292929" style=""></path><path d="M37.4,17.8c7.3-1.1,16.7-7.4,16.7-7.4s-0.6,13.2,2.4,19.8c4.6,10.2,8,12.5,8,12.5l2.7-4c0,0-5.9-5.2-7.3-10.2   C56.9,18.2,57.7,5,57.7,5s-12.3,7.8-19.5,8.5c-10.2,1-15.6-3.3-15.6-3.3l-2.7,4.1C19.9,14.2,28.6,19.1,37.4,17.8z" fill="#292929" style=""></path><path d="M65,60.5c0,0,3.1-7.2,7.4-10.1c9-6.1,21.9-9.7,21.9-9.7s-11.5-8.9-14.5-15.4c-4.2-9.1-1.9-15.6-1.9-15.6l-4.8-1.2   c0,0-1.9,9.6,2.2,17.4c3.4,6.4,12.5,13.2,12.5,13.2S75,42.9,69.6,47.8c-8.3,7.6-9.4,11.5-9.4,11.5L65,60.5z" fill="#292929" style=""></path></g><desc>Created with Snap</desc><defs></defs></g><g><g transform="matrix(0.5,0,0,-0.5,0,0)"><path d="M395 1261L396 265Q397 208 409 179Q421 150 459 150Q637 150 736 376Q832 596 832 986Q832 1191 784 1297Q719 1440 558 1440Q455 1440 431 1416Q408 1392 401 1356Q395 1321 395 1261ZM117 0Q149 76 154 127Q160 178 164 236Q172 354 172 553Q172 794 164 993L153 1268Q149 1372 135 1413Q113 1478 63 1530L612 1530Q954 1530 1059 1261Q1096 1166 1096 1031Q1096 276 584 69Q411 -1 177 -1Q162 -1 147 -1Q132 -1 117 0ZM2048 534L2045 342Q2045 163 2078 98Q2098 59 2125 38L2172 0L1882 0L1851 116Q1738 -20 1529 -20Q1410 -20 1337 60Q1273 132 1273 230Q1273 328 1319 401Q1366 474 1442 522Q1592 615 1819 619L1819 630Q1819 873 1744 915Q1717 930 1674 930Q1632 930 1590 902Q1548 874 1514 830Q1446 741 1417 620Q1328 673 1328 823Q1328 884 1344 960Q1382 960 1416 971L1493 995Q1606 1030 1714 1030Q1822 1030 1886 998Q1951 966 1987 903Q2048 796 2048 534ZM1489 210Q1489 148 1517 114Q1546 80 1589 80Q1632 80 1672 102Q1712 125 1744 164Q1819 253 1819 373L1819 521Q1679 508 1588 428Q1489 342 1489 210ZM2637 1279Q2617 1246 2588 1223Q2559 1201 2522 1201Q2485 1201 2456 1223Q2427 1246 2407 1279Q2366 1347 2366 1423Q2366 1515 2450 1546Q2480 1557 2523 1557Q2642 1557 2671 1473Q2680 1449 2680 1419Q2680 1390 2669 1351Q2658 1312 2637 1279ZM2661 0L2366 0Q2412 158 2412 543Q2412 814 2364 916Q2352 942 2337 964L2304 1010L2659 1010Q2615 845 2615 501Q2615 158 2661 0ZM3194 720L3193 458Q3193 134 3232 0L2937 0Q2965 97 2972 229Q2987 548 2987 724Q2987 900 2986 960Q2985 1021 2984 1082Q2978 1299 2963 1355Q2949 1412 2936 1437Q2924 1463 2908 1484L2875 1530L3240 1530Q3212 1429 3207 1336Q3203 1244 3200 1173Q3198 1102 3196 1025Q3194 897 3194 720ZM4030 301L4030 331L4031 553Q4031 762 4020 826Q4009 890 4002 915Q3996 941 3987 963L3968 1010L4263 1010L4258 964Q4252 916 4250 824L4246 672Q4241 497 4241 345Q4241 193 4222 85Q4204 -23 4173 -105Q4142 -187 4102 -247Q4062 -306 4018 -346Q3942 -418 3848 -450Q3828 -442 3809 -421Q3791 -399 3787 -380Q3875 -335 3928 -242Q4003 -110 4023 139Q3907 -20 3738 -20Q3618 -20 3552 74Q3489 165 3489 324L3489 459Q3489 504 3488 551L3488 642Q3486 729 3481 777Q3477 826 3471 858Q3466 891 3458 916Q3450 942 3440 964L3418 1010L3723 1010Q3697 867 3697 469Q3697 307 3714 253Q3731 199 3756 174Q3782 150 3822 150Q3862 150 3892 162Q3923 175 3948 196Q3997 234 4030 301ZM4062 386L4068 410L4062 386Z" fill="#292929" style=""></path></g></g><g transform="matrix(1,0,0,1,16.5,1327.2)"><g transform="matrix(0.5,0,0,-0.5,0,0)"><path d="M911 370Q938 331 938 276Q938 221 930 181Q923 141 910 105Q880 26 834 0L30 0Q109 49 133 85Q179 153 179 261Q178 527 178 742L178 1266Q178 1411 130 1479Q113 1504 88 1530L499 1530Q440 1445 432 1355Q430 1325 430 1289L430 373Q430 186 450 149Q470 113 498 106Q526 100 583 100Q640 100 691 120Q742 140 782 176Q850 238 911 370ZM1721 340Q1757 316 1757 256Q1757 197 1741 152Q1725 107 1685 68Q1595 -20 1411 -20Q1197 -20 1085 138Q986 279 986 519Q986 761 1120 899Q1247 1030 1464 1030Q1615 1030 1700 942Q1767 872 1767 780Q1767 689 1731 615Q1696 542 1627 489Q1485 379 1230 373Q1251 172 1356 104Q1394 80 1457 80Q1520 80 1591 146Q1662 212 1721 340ZM1224 499L1224 468Q1540 489 1540 774Q1540 881 1476 918Q1454 930 1418 930Q1382 930 1345 908Q1309 886 1282 836Q1224 727 1224 499ZM2721 534L2718 342Q2718 163 2751 98Q2771 59 2798 38L2845 0L2555 0L2524 116Q2411 -20 2202 -20Q2083 -20 2010 60Q1946 132 1946 230Q1946 328 1992 401Q2039 474 2115 522Q2265 615 2492 619L2492 630Q2492 873 2417 915Q2390 930 2347 930Q2305 930 2263 902Q2221 874 2187 830Q2119 741 2090 620Q2001 673 2001 823Q2001 884 2017 960Q2055 960 2089 971L2166 995Q2279 1030 2387 1030Q2495 1030 2559 998Q2624 966 2660 903Q2721 796 2721 534ZM2162 210Q2162 148 2190 114Q2219 80 2262 80Q2305 80 2345 102Q2385 125 2417 164Q2492 253 2492 373L2492 521Q2352 508 2261 428Q2162 342 2162 210ZM3385 0L3020 0Q3067 161 3067 650Q3067 736 3065 761Q3063 787 3047 790Q2981 805 2968 866Q2965 882 2960 900L3024 900Q3052 900 3058 912Q3065 925 3065 983Q3065 1096 3056 1205Q3048 1314 3065 1370Q3082 1426 3118 1466Q3194 1550 3333 1550Q3385 1550 3428 1540Q3471 1530 3511 1530Q3551 1530 3581 1541Q3611 1552 3634 1590Q3647 1575 3658 1536Q3669 1498 3669 1452Q3669 1407 3662 1356Q3656 1306 3644 1258Q3619 1158 3574 1099Q3550 1303 3529 1353Q3509 1403 3484 1421Q3460 1440 3412 1440Q3364 1440 3326 1389Q3289 1339 3289 1251L3289 1219Q3289 1019 3300 977Q3311 936 3330 923Q3349 910 3384 910L3568 910Q3543 820 3506 794Q3488 780 3465 780Q3443 780 3430 783Q3417 786 3405 790Q3375 800 3350 800Q3326 800 3313 793Q3300 787 3292 775Q3280 755 3280 711L3280 540Q3280 229 3302 151Q3318 93 3343 59L3385 0ZM4010 720L4009 458Q4009 134 4048 0L3753 0Q3781 97 3788 229Q3803 548 3803 724Q3803 900 3802 960Q3801 1021 3800 1082Q3794 1299 3779 1355Q3765 1412 3752 1437Q3740 1463 3724 1484L3691 1530L4056 1530Q4028 1429 4023 1336Q4019 1244 4016 1173Q4014 1102 4012 1025Q4010 897 4010 720ZM4994 340Q5030 316 5030 256Q5030 197 5014 152Q4998 107 4958 68Q4868 -20 4684 -20Q4470 -20 4358 138Q4259 279 4259 519Q4259 761 4393 899Q4520 1030 4737 1030Q4888 1030 4973 942Q5040 872 5040 780Q5040 689 5004 615Q4969 542 4900 489Q4758 379 4503 373Q4524 172 4629 104Q4667 80 4730 80Q4793 80 4864 146Q4935 212 4994 340ZM4497 499L4497 468Q4813 489 4813 774Q4813 881 4749 918Q4727 930 4691 930Q4655 930 4618 908Q4582 886 4555 836Q4497 727 4497 499ZM5544 1410Q5523 1333 5523 1225Q5523 1118 5527 1088Q5532 1058 5542 1040Q5561 1010 5616 1010L5884 1010Q5884 954 5857 924Q5808 870 5737 870Q5702 870 5675 880Q5626 900 5599 900Q5572 900 5555 889Q5538 879 5528 859Q5510 823 5510 702Q5510 581 5517 454Q5525 327 5555 241Q5585 156 5646 113Q5707 70 5814 70Q5814 39 5772 -4Q5761 -16 5753 -20Q5576 -20 5488 22Q5387 72 5344 200Q5301 330 5301 585Q5301 808 5289 848Q5277 889 5267 902Q5255 917 5209 939Q5271 986 5332 1114L5382 1219Q5435 1339 5472 1374Q5510 1410 5544 1410Z" fill="#292929" style=""></path></g></g></g></svg>